<svg width="64.000000" height="64.000000" viewBox="0 0 64 64" fill="none" xmlns="http://www.w3.org/2000/svg" xmlns:xlink="http://www.w3.org/1999/xlink">
	<desc>
			Created with Pixso.
	</desc>
	<defs>
		<clipPath id="clip23_117">
			<rect id="github-svgrepo-com.svg" rx="32.000000" width="64.000000" height="64.000000" fill="white" fill-opacity="0"/>
		</clipPath>
	</defs>
	<rect id="github-svgrepo-com.svg" rx="32.000000" width="64.000000" height="64.000000" fill="#90C5EA" fill-opacity="1.000000"/>
	<g clip-path="url(#clip23_117)">
		<path id="path" d="M48.19 19.6C48.21 20.75 48.07 22.19 47.95 23.24C47.91 23.65 47.84 23.99 47.77 24.27C49.32 27.28 50 30.89 50 34.84C50 39.51 47.86 43.37 44.53 45.99C41.23 48.59 36.78 50 32 50C27.21 50 22.76 48.59 19.46 45.99C16.13 43.37 14 39.51 14 34.84C14 30.89 14.67 27.28 16.22 24.27C16.15 23.99 16.08 23.65 16.04 23.24C15.92 22.19 15.78 20.75 15.8 19.6C15.82 18.31 15.98 17.01 16.15 15.73C16.24 15.13 16.37 14.57 16.98 14.22C17.61 13.86 18.27 13.99 18.92 14.19C21.11 14.84 23.17 15.76 25.1 16.86C27.13 16.22 29.44 15.89 32 15.89C34.55 15.89 36.86 16.22 38.89 16.86C40.82 15.76 42.88 14.84 45.07 14.19C45.72 13.99 46.38 13.86 47.01 14.22C47.62 14.57 47.75 15.13 47.84 15.73C48.01 17.01 48.17 18.31 48.19 19.6ZM46.4 34.84C46.4 31.64 45.7 27.26 41.9 27.26C40.18 27.26 38.56 27.73 36.94 28.21C35.32 28.68 33.7 29.15 32 29.15C30.29 29.15 28.67 28.68 27.05 28.21C25.43 27.73 23.81 27.26 22.1 27.26C18.3 27.26 17.6 31.65 17.6 34.84C17.6 38.18 19.08 40.96 21.62 42.96C24.19 44.98 27.84 46.21 32 46.21C36.15 46.21 39.8 44.98 42.37 42.96C44.91 40.96 46.4 38.18 46.4 34.84ZM28.4 35.78C28.4 38.4 27.19 40.52 25.7 40.52C24.2 40.52 23 38.4 23 35.78C23 33.17 24.2 31.05 25.7 31.05C27.19 31.05 28.4 33.17 28.4 35.78ZM38.3 40.52C39.79 40.52 41 38.4 41 35.78C41 33.17 39.79 31.05 38.3 31.05C36.8 31.05 35.59 33.17 35.59 35.78C35.59 38.4 36.8 40.52 38.3 40.52Z" fill="#000000" fill-opacity="1.000000" fill-rule="evenodd"/>
	</g>
</svg>
